<?xml version="1.0" encoding="UTF-8"?>
<svg width="22px" height="24px" viewBox="0 0 22 24" version="1.1" xmlns="http://www.w3.org/2000/svg" xmlns:xlink="http://www.w3.org/1999/xlink">
    <!-- Generator: Sketch 46.2 (44496) - http://www.bohemiancoding.com/sketch -->
    <title>Group 390</title>
    <desc>Created with Sketch.</desc>
    <defs>
        <polygon id="path-1" points="4.06051 0 10.78362 0 6.3314 6.19 10.7914 6.19 0.54318 17.912 4.08384 9.849 0.30562 9.849"></polygon>
    </defs>
    <g id="Page-1" stroke="none" stroke-width="1" fill="none" fill-rule="evenodd">
        <g id="the-mindful-habit-v2" transform="translate(-194.000000, -23.000000)">
            <g id="Group-390" transform="translate(200.000000, 23.000000)">
                <mask id="mask-2" fill="white">
                    <use xlink:href="#path-1"></use>
                </mask>
                <use id="Clip-389" fill="#959595" xlink:href="#path-1"></use>
                <path d="M10.37662,2.492 C13.72429,4.375 15.98584,7.96 15.98584,12.072 C15.98584,18.14 11.06407,23.059 4.99296,23.059 C-1.07827,23.059 -6.00004,18.14 -6.00004,12.072 C-6.00004,6.977 -2.52938,2.693 2.17784,1.45 L1.18118,4.071 C-1.80704,5.496 -3.87238,8.543 -3.87238,12.072 C-3.87238,16.966 0.09673,20.933 4.99296,20.933 C9.88907,20.933 13.85818,16.966 13.85818,12.072 C13.85818,8.672 11.94073,5.721 9.12851,4.235 L10.37662,2.492 Z" id="Clip-386" fill="#FFFFFF"></path>
            </g>
        </g>
    </g>
</svg>
